<svg xmlns="http://www.w3.org/2000/svg" width="72" height="99" viewBox="0 0 72 99" fill="none"><path d="M31.6907 88.9811C29.2198 87.6086 26.7472 87.642 24.2722 89.0812" stroke="#34765e" stroke-width="1.9825" stroke-linecap="round"></path><path d="M17.9904 89.3687C19.9403 90.6753 21.8902 90.6721 23.8402 89.36" stroke="#34765e" stroke-width="1.9825" stroke-linecap="round"></path><path d="M46.2124 89.0867C43.6294 87.6428 41.0647 87.6221 38.5183 89.024" stroke="#34765e" stroke-width="1.9825" stroke-linecap="round"></path><path d="M32.2181 89.3528C34.1681 90.6594 36.118 90.6562 38.0679 89.3433" stroke="#34765e" stroke-width="1.9825" stroke-linecap="round"></path><path d="M46.6763 89.406C48.6262 90.7126 50.5761 90.7094 52.5261 89.3965" stroke="#34765e" stroke-width="1.9825" stroke-linecap="round"></path><path d="M56.7652 87.3711C55.6564 87.5506 54.3315 88.1773 52.7906 89.252" stroke="#34765e" stroke-width="1.9825" stroke-linecap="round"></path><path d="M17.467 88.943C16.413 88.0391 15.2296 87.5173 13.9182 87.3775" stroke="#34765e" stroke-width="1.9825" stroke-linecap="round"></path><path d="M35.296 66.6263C40.1665 54.2865 48.1728 49.6512 59.3164 52.7226" stroke="#34765e" stroke-width="1.9825" stroke-linecap="round"></path><mask id="mask0_105_5" style="mask-type:luminance" maskUnits="userSpaceOnUse" x="39" y="20" width="11" height="11"><path d="M39.5446 20.9105H49.6096V30.9755H39.5446V20.9105Z" fill="white"></path></mask><g mask="url(#mask0_105_5)"><mask id="mask1_105_5" style="mask-type:luminance" maskUnits="userSpaceOnUse" x="39" y="20" width="11" height="12"><path d="M44.6104 20.9105C41.8122 20.9105 39.5446 23.1789 39.5446 25.9764C39.5446 28.7746 41.8122 31.0422 44.6104 31.0422C47.4078 31.0422 49.6763 28.7746 49.6763 25.9764C49.6763 23.1789 47.4078 20.9105 44.6104 20.9105Z" fill="white"></path></mask><g mask="url(#mask1_105_5)"><path d="M44.6104 20.9105C41.8122 20.9105 39.5446 23.1789 39.5446 25.9764C39.5446 28.7746 41.8122 31.0422 44.6104 31.0422C47.4078 31.0422 49.6763 28.7746 49.6763 25.9764C49.6763 23.1789 47.4078 20.9105 44.6104 20.9105Z" stroke="#34765e" stroke-width="3.965"></path></g></g><path d="M11.2613 53.7194C21.6003 49.7687 29.8886 52.586 36.1275 62.1721" stroke="#34765e" stroke-width="1.9825" stroke-linecap="round"></path><path d="M28.088 68.7868C25.8172 65.701 28.1674 63.7606 35.1379 62.9656" stroke="#34765e" stroke-width="1.9825" stroke-linecap="round"></path><path d="M35.0005 69.7939C30.5915 68.1267 30.6685 66.037 35.2308 63.5231" stroke="#34765e" stroke-width="1.9825" stroke-linecap="round"></path><path d="M35.4414 78.009C38.6534 76.2092 39.4159 74.2299 37.7281 72.0703" stroke="#34765e" stroke-width="1.9825" stroke-linecap="round"></path><path d="M35.5962 84.4903C32.4747 81.9049 32.3492 79.7803 35.2189 78.1163" stroke="#34765e" stroke-width="1.9825" stroke-linecap="round"></path><path d="M30.3866 76.357C33.7122 75.1989 34.0386 73.5699 31.3659 71.469" stroke="#34765e" stroke-width="1.9825" stroke-linecap="round"></path><path d="M22.2247 84.0511C21.6067 80.5324 24.177 78.0178 29.9339 76.5079" stroke="#34765e" stroke-width="1.9825" stroke-linecap="round"></path><path d="M37.7098 71.9789C37.1077 71.1426 36.2324 70.4349 35.0815 69.8543" stroke="#34765e" stroke-width="1.9825" stroke-linecap="round"></path><path d="M12.9103 84.897H57.476" stroke="#34765e" stroke-width="1.9825"></path><path d="M23.706 25.966C24.4749 26.1924 25.1452 26.5863 25.7179 27.1479" stroke="#34765e" stroke-width="1.9825" stroke-linecap="round"></path><path d="M25.8457 27.19C26.4899 26.5744 27.2397 26.1424 28.0951 25.8937" stroke="#34765e" stroke-width="1.9825" stroke-linecap="round"></path><path d="M30.4907 36.7491C31.2596 36.9754 31.9299 37.3694 32.5026 37.9309" stroke="#34765e" stroke-width="1.9825" stroke-linecap="round"></path><path d="M32.6312 37.973C33.2746 37.3575 34.0244 36.9254 34.8798 36.6776" stroke="#34765e" stroke-width="1.9825" stroke-linecap="round"></path><path d="M11.1264 36.5894C13.9794 18.9502 22.1485 10.2148 35.6336 10.3832" stroke="#34765e" stroke-width="2.135" stroke-linecap="round"></path><path d="M59.9486 37.2407C57.7199 19.7104 49.8447 10.7708 36.3222 10.4221" stroke="#34765e" stroke-width="2.135" stroke-linecap="round"></path><path d="M6.60931 37.3805C9.97703 16.2521 19.7378 5.83125 35.8917 6.11798" stroke="#34765e" stroke-width="2.135" stroke-linecap="round"></path><path d="M64.5498 38.1565C61.9303 17.1504 52.5142 6.48415 36.3016 6.1577" stroke="#34765e" stroke-width="2.135" stroke-linecap="round"></path><path d="M13.2327 92.2757C10.2033 64.6677 9.5425 45.8498 11.2486 35.8237" stroke="#34765e" stroke-width="2.135" stroke-linecap="round"></path><path d="M8.56 92.1788C5.6069 64.7249 4.9969 46.0134 6.72921 36.0453" stroke="#34765e" stroke-width="2.135" stroke-linecap="round"></path><path d="M61.719 93.4608C64.4902 67.1037 65.4465 48.8521 64.5871 38.7077" stroke="#34765e" stroke-width="2.135" stroke-linecap="round"></path><path d="M57.2505 92.0811C60.4331 65.4357 61.3227 47.1199 59.9192 37.1327" stroke="#34765e" stroke-width="2.135" stroke-linecap="round"></path><path d="M56.6691 93.02C36.7956 93.0255 22.6576 93.0255 14.255 93.0208" stroke="#34765e" stroke-width="2.135" stroke-linecap="round"></path><path d="M56.0304 97.4377C36.1577 97.444 22.0197 97.444 13.6163 97.4385" stroke="#34765e" stroke-width="2.135" stroke-linecap="round"></path><path d="M14.0112 97.4123C10.6268 97.865 8.77453 95.7737 8.45444 91.1383" stroke="#34765e" stroke-width="2.135" stroke-linecap="round"></path><path d="M61.8675 93.1733C61.6666 96.1518 59.7571 97.5846 56.1369 97.4727" stroke="#34765e" stroke-width="2.135" stroke-linecap="round"></path><path d="M13.9635 93.0803C13.5528 92.993 13.336 92.7118 13.3129 92.2384" stroke="#34765e" stroke-width="2.135" stroke-linecap="round"></path><path d="M57.3258 91.9954C57.3155 92.6657 56.9192 93.0303 56.1344 93.0875" stroke="#34765e" stroke-width="2.135" stroke-linecap="round"></path><path d="M17.1747 41.7768V51.5654" stroke="#34765e" stroke-width="1.9825" stroke-linecap="round"></path><path d="M26.3319 43.8228V52.1913" stroke="#34765e" stroke-width="1.9825" stroke-linecap="round"></path><path d="M17.2152 41.5695C18.4138 40.7458 19.3462 40.8419 20.0134 41.8578" stroke="#34765e" stroke-width="1.9825"></path><path d="M20.0818 42.0659C20.7116 42.9634 22.6767 43.4265 25.9777 43.4543" stroke="#34765e" stroke-width="1.9825" stroke-linecap="round"></path><path d="M31.2682 71.3896C30.0824 70.666 29.0514 69.8551 28.1737 68.9559" stroke="#34765e" stroke-width="1.9825" stroke-linecap="round"></path><path d="M48.6262 83.7397V72.334" stroke="#34765e" stroke-width="1.9825" stroke-linecap="round"></path><path d="M51.1147 77.4689C51.6874 72.2164 51.1775 69.7502 49.585 70.0695" stroke="#34765e" stroke-width="1.9825" stroke-linecap="round"></path><path d="M46.0273 77.4816C45.5794 72.5079 45.99 70.0489 47.2585 70.106" stroke="#34765e" stroke-width="1.9825" stroke-linecap="round"></path><path d="M49.098 70.1251L47.8304 70.1188" stroke="#34765e" stroke-width="1.9825" stroke-linecap="round"></path><path d="M48.7446 67.4079L48.7565 69.0584" stroke="#34765e" stroke-width="1.9825" stroke-linecap="round"></path><path d="M44.6787 66.5485H52.1163" stroke="#34765e" stroke-width="1.9825" stroke-linecap="round"></path><path d="M44.697 68.1823V66.9337" stroke="#34765e" stroke-width="1.9825" stroke-linecap="round"></path><path d="M52.399 68.1815V66.8758" stroke="#34765e" stroke-width="1.9825" stroke-linecap="round"></path><path d="M52.8525 50.3994V48.6949" stroke="#34765e" stroke-width="1.83" stroke-linecap="round"></path><path d="M51.3053 47.5011C51.2704 43.5837 51.6548 41.1326 52.4602 40.1485" stroke="#34765e" stroke-width="1.83" stroke-linecap="round"></path><path d="M54.171 47.3899C54.4705 44.3065 54.1385 41.9277 53.1758 40.2542" stroke="#34765e" stroke-width="1.83" stroke-linecap="round"></path><path d="M52.0392 48.7441C51.5515 48.3899 51.31 47.8267 51.3156 47.0547" stroke="#34765e" stroke-width="1.83" stroke-linecap="round"></path><path d="M53.5054 48.791C53.8739 48.4225 54.0907 48.0039 54.1543 47.5345" stroke="#34765e" stroke-width="1.83" stroke-linecap="round"></path></svg>